<?xml version="1.0" standalone="no"?>
<!DOCTYPE svg PUBLIC "-//W3C//DTD SVG 20010904//EN"
 "http://www.w3.org/TR/2001/REC-SVG-20010904/DTD/svg10.dtd">
<svg version="1.0" xmlns="http://www.w3.org/2000/svg"
 width="230.000000pt" height="230.000000pt" viewBox="0 0 230.000000 230.000000"
 preserveAspectRatio="xMidYMid meet">
<metadata>
Created by potrace 1.11, written by Peter Selinger 2001-2013
</metadata>
<g transform="translate(0.000000,230.000000) scale(0.100000,-0.100000)"
fill="#000000" stroke="none">
<path d="M976 2064 c-348 -69 -634 -330 -724 -661 l-19 -68 -117 -3 -116 -3 0
-417 c0 -341 3 -429 15 -477 42 -164 155 -300 310 -376 l90 -44 705 -3 c481
-2 719 1 749 8 177 44 341 203 403 390 20 62 22 88 26 493 l4 427 -121 0 -120
0 -11 43 c-75 288 -280 525 -549 635 -164 67 -363 89 -525 56z m165 -481 l438
-248 -445 -3 -444 -2 0 -425 c0 -234 2 -425 5 -425 3 0 274 152 602 337 506
286 593 338 579 349 -10 6 -76 45 -148 85 l-131 74 228 3 c125 1 230 0 232 -2
12 -12 20 -192 12 -274 -39 -381 -315 -701 -694 -803 -118 -32 -337 -33 -454
-1 -333 90 -587 342 -676 670 -19 70 -30 255 -21 345 l8 67 229 0 229 0 0 250
c0 138 3 250 7 250 4 0 204 -111 444 -247z"/>
</g>
</svg>
